<svg version="1.2" baseProfile="tiny-ps" xmlns="http://www.w3.org/2000/svg" viewBox="0 0 514 412" width="514" height="412">
	<title>CMYK-ai</title>
	<style>
		tspan { white-space:pre }
		.s0 { fill: #2c2e35 } 
		.s1 { fill: #c54531 } 
		.t2 { font-size: 30px;fill: #2c2e35;font-family: "U DShin Go Pro" } 
		.t3 { font-size: 10px;fill: #2c2e35;font-family: "U DShin Go Pro" } 
	</style>
	<g id="レイヤー 1">
	</g>
	<g id="frame">
	</g>
	<g id="text">
	</g>
	<g id="マーク">
		<g id="&lt;Group&gt;">
			<g id="&lt;Group&gt;">
				<path id="&lt;Compound Path&gt;" fill-rule="evenodd" class="s0" d="m77 59.51h166.47v196.54h-6.39v-190.17h-154.09v190.17h-6v-196.54zm27.49 90.76v94.63h111.31v-94.63h-6.19v46.86h-26.13v-65.06h40.65v-6.37h-127.76v6.37h40.65v65.06h-26.32v-46.86h-6.2z" />
				<path id="&lt;Compound Path&gt;" fill-rule="evenodd" class="s0" d="m441 78.39h-174.22v-6.37h61.95v-15.01h50.33v15.01h61.95v6.37zm-168.41 40.04h162.41v138.76h-6.2v-132.4h-35.81v13.43h26.13v38.67h-64.85v-52.1h-28.26v53.46h-37.55v-6.37h31.36v-47.09h-41.04v132.4h-6.2v-138.76zm132.6 135.35h-102.79v-62.78h102.79v62.78zm-44.52-56.42h-52.08v15.47h52.08v-15.47z" />
			</g>
			<path id="&lt;Path&gt;" class="s0" d="m136.05 98.15c0 9.4-7.62 17.02-17.02 17.02c-9.4 0-17.02-7.62-17.02-17.02c0-9.4 7.62-17.02 17.02-17.02c9.4 0 17.02 7.62 17.02 17.02z" />
			<path id="&lt;Path&gt;" class="s0" d="m214.7 98.15c0 9.4-7.62 17.02-17.02 17.02c-9.4 0-17.02-7.62-17.02-17.02c0-9.4 7.62-17.02 17.02-17.02c9.4 0 17.02 7.62 17.02 17.02z" />
			<path id="&lt;Path&gt;" class="s0" d="m327.85 98.15c0 9.4-7.62 17.02-17.02 17.02c-9.4 0-17.02-7.62-17.02-17.02c0-9.4 7.62-17.02 17.02-17.02c9.4 0 17.02 7.62 17.02 17.02z" />
			<path id="&lt;Path&gt;" class="s0" d="m406.5 98.15c0 9.4-7.62 17.02-17.02 17.02c-9.4 0-17.02-7.62-17.02-17.02c0-9.4 7.62-17.02 17.02-17.02c9.4 0 17.02 7.62 17.02 17.02z" />
			<g id="&lt;Group&gt;">
				<path id="&lt;Path&gt;" class="s0" d="m76.03 330.03h40.24v12.35h-40.24v-12.35z" />
				<path id="&lt;Path&gt;" class="s0" d="m111.67 283.66c4.32 4.32 6.47 9.49 6.47 15.54v2.21c0 6.08-2.16 11.27-6.47 15.59c-4.29 4.29-9.47 6.43-15.54 6.43c-6.05 0-11.23-2.14-15.55-6.43c-4.32-4.32-6.47-9.51-6.47-15.59v-2.21c0-6.05 2.16-11.23 6.47-15.54c4.32-4.32 9.49-6.47 15.55-6.47c6.07 0 11.25 2.16 15.54 6.47z" />
				<path id="&lt;Path&gt;" class="s0" d="m147.05 309.5l19 32.88h-14.27l-11.84-20.49l-2.47 4.18v16.31h-12.35v-63.88h12.35v22.87l13.2-22.87h14.26l-17.89 31z" />
				<path id="&lt;Compound Path&gt;" fill-rule="evenodd" class="s0" d="m200.46 278.5l16.52 63.88h-12.73l-2.52-9.71h-17.24l-2.52 9.71h-12.74l16.52-63.88h14.69zm-1.96 41.78l-5.41-20.83l-5.36 20.83h10.77z" />
				<path id="&lt;Path&gt;" class="s0" d="m219.48 305.25h11.24v10.31h-11.24v-10.31z" />
				<path id="&lt;Path&gt;" class="s0" d="m269.22 313.59c3.26 3.75 4.89 8.03 4.89 12.86c0 4.88-1.89 9-5.66 12.35c-3.63 3.26-7.91 4.89-12.82 4.89c-7.56 0-13.41-3.58-17.55-10.73l10.69-6.17c1.73 3.04 4.01 4.56 6.86 4.56c1.61 0 3-0.43 4.17-1.28c1.31-0.96 1.96-2.24 1.96-3.83c0-1.9-0.97-3.79-2.9-5.67c-1.17-1.16-3.4-2.84-6.69-5.03l-1.32-0.94l-1.36-0.9c-1-0.7-1.87-1.36-2.65-1.95c-1.95-1.53-3.58-3.03-4.85-4.47c-3.27-3.78-4.9-8.06-4.9-12.86c0-4.88 1.87-9.01 5.62-12.4c3.63-3.24 7.93-4.85 12.91-4.85c7.52 0 13.34 3.56 17.45 10.69l-10.69 6.18c-1.7-3.01-3.96-4.52-6.77-4.52c-1.65 0-3.05 0.43-4.22 1.28c-1.31 0.97-1.96 2.23-1.96 3.79c0 1.93 0.95 3.83 2.85 5.71c1.19 1.14 3.44 2.81 6.73 5.03c1.16 0.79 2.04 1.4 2.63 1.83c1.02 0.71 1.92 1.36 2.69 1.95c1.96 1.51 3.58 3 4.85 4.47z" />
				<path id="&lt;Path&gt;" class="s0" d="m311.3 278.5h12.35v63.88h-12.35v-25.77h-19.16v25.77h-12.35v-63.88h12.35v25.77h19.16v-25.77z" />
				<path id="&lt;Path&gt;" class="s0" d="m332.89 330.03h40.24v12.35h-40.24v-12.35z" />
				<path id="&lt;Path&gt;" class="s0" d="m368.53 283.66c4.32 4.32 6.47 9.49 6.47 15.54v2.21c0 6.08-2.16 11.27-6.47 15.59c-4.29 4.29-9.47 6.43-15.54 6.43c-6.05 0-11.23-2.14-15.55-6.43c-4.32-4.32-6.47-9.51-6.47-15.59v-2.21c0-6.05 2.16-11.23 6.47-15.54c4.32-4.32 9.49-6.47 15.55-6.47c6.07 0 11.25 2.16 15.54 6.47z" />
				<path id="&lt;Path&gt;" class="s0" d="m442.89 278.5l-16.52 63.88h-9.11l-6.81-26.45l-6.9 26.45h-9.11l-16.52-63.88h12.73l8.35 32.19l8.39-32.19h6.05l8.39 32.19l8.35-32.19h12.74z" />
			</g>
		</g>
		<g id="&lt;Group&gt;">
			<g id="&lt;Group&gt;">
				<path id="&lt;Compound Path&gt;" fill-rule="evenodd" class="s0" d="m761 53.47h163.87v193.46h-6.29v-187.19h-151.68v187.19h-5.9v-193.46zm27.06 89.34v93.15h109.56v-93.15h-6.1v46.13h-25.73v-64.04h40.01v-6.27h-125.76v6.27h40.01v64.04h-25.91v-46.13h-6.1z" />
				<path id="&lt;Compound Path&gt;" fill-rule="evenodd" class="s0" d="m1119.29 72.05h-171.49v-6.27h60.97v-14.78h49.54v14.78h60.97v6.27zm-165.77 39.41h159.87v136.59h-6.1v-130.32h-35.25v13.22h25.73v38.07h-63.84v-51.28h-27.82v52.62h-36.97v-6.27h30.87v-46.35h-40.4v130.32h-6.1v-136.59zm130.52 133.23h-101.18v-61.8h101.18v61.8zm-43.82-55.53h-51.26v15.23h51.26v-15.23z" />
			</g>
			<path id="&lt;Path&gt;" class="s1" d="m819.12 91.51c0 9.25-7.5 16.75-16.75 16.75c-9.25 0-16.75-7.5-16.75-16.75c0-9.25 7.5-16.75 16.75-16.75c9.25 0 16.75 7.5 16.75 16.75z" />
			<path id="&lt;Path&gt;" class="s1" d="m896.54 91.51c0 9.25-7.5 16.75-16.75 16.75c-9.25 0-16.75-7.5-16.75-16.75c0-9.25 7.5-16.75 16.75-16.75c9.25 0 16.75 7.5 16.75 16.75z" />
			<path id="&lt;Path&gt;" class="s1" d="m1007.92 91.51c0 9.25-7.5 16.75-16.75 16.75c-9.25 0-16.75-7.5-16.75-16.75c0-9.25 7.5-16.75 16.75-16.75c9.25 0 16.75 7.5 16.75 16.75z" />
			<path id="&lt;Path&gt;" class="s1" d="m1085.34 91.51c0 9.25-7.5 16.75-16.75 16.75c-9.25 0-16.75-7.5-16.75-16.75c0-9.25 7.5-16.75 16.75-16.75c9.25 0 16.75 7.5 16.75 16.75z" />
			<g id="&lt;Group&gt;">
				<path id="&lt;Path&gt;" class="s0" d="m759.73 330.03h40.24v12.35h-40.24v-12.35z" />
				<path id="&lt;Path&gt;" class="s1" d="m795.37 283.66c4.32 4.32 6.47 9.49 6.47 15.54v2.21c0 6.08-2.16 11.27-6.47 15.59c-4.29 4.29-9.47 6.43-15.54 6.43c-6.05 0-11.23-2.14-15.55-6.43c-4.32-4.32-6.47-9.51-6.47-15.59v-2.21c0-6.05 2.16-11.23 6.47-15.54c4.32-4.32 9.49-6.47 15.55-6.47c6.07 0 11.25 2.16 15.54 6.47z" />
				<path id="&lt;Path&gt;" class="s0" d="m830.76 309.5l19 32.88h-14.27l-11.84-20.49l-2.47 4.18v16.31h-12.35v-63.88h12.35v22.87l13.2-22.87h14.26l-17.89 31z" />
				<path id="&lt;Compound Path&gt;" fill-rule="evenodd" class="s0" d="m884.16 278.5l16.52 63.88h-12.73l-2.52-9.71h-17.24l-2.52 9.71h-12.74l16.52-63.88h14.69zm-1.96 41.78l-5.41-20.83l-5.36 20.83h10.77z" />
				<path id="&lt;Path&gt;" class="s0" d="m903.19 305.25h11.24v10.31h-11.24v-10.31z" />
				<path id="&lt;Path&gt;" class="s0" d="m952.93 313.59c3.26 3.75 4.89 8.03 4.89 12.86c0 4.88-1.89 9-5.66 12.35c-3.63 3.26-7.91 4.89-12.82 4.89c-7.56 0-13.41-3.58-17.55-10.73l10.69-6.17c1.73 3.04 4.01 4.56 6.86 4.56c1.61 0 3-0.43 4.17-1.28c1.31-0.96 1.96-2.24 1.96-3.83c0-1.9-0.97-3.79-2.9-5.67c-1.17-1.16-3.4-2.84-6.69-5.03l-1.32-0.94l-1.36-0.9c-1-0.7-1.87-1.36-2.65-1.95c-1.95-1.53-3.58-3.03-4.85-4.47c-3.27-3.78-4.9-8.06-4.9-12.86c0-4.88 1.87-9.01 5.62-12.4c3.63-3.24 7.93-4.85 12.91-4.85c7.52 0 13.34 3.56 17.45 10.69l-10.69 6.18c-1.7-3.01-3.96-4.52-6.77-4.52c-1.65 0-3.05 0.43-4.22 1.28c-1.31 0.97-1.96 2.23-1.96 3.79c0 1.93 0.95 3.83 2.85 5.71c1.19 1.14 3.44 2.81 6.73 5.03c1.16 0.79 2.04 1.4 2.63 1.83c1.02 0.71 1.92 1.36 2.69 1.95c1.96 1.51 3.58 3 4.85 4.47z" />
				<path id="&lt;Path&gt;" class="s0" d="m995 278.5h12.35v63.88h-12.35v-25.77h-19.16v25.77h-12.35v-63.88h12.35v25.77h19.16v-25.77z" />
				<path id="&lt;Path&gt;" class="s0" d="m1016.59 330.03h40.24v12.35h-40.24v-12.35z" />
				<path id="&lt;Path&gt;" class="s1" d="m1052.24 283.66c4.32 4.32 6.47 9.49 6.47 15.54v2.21c0 6.08-2.16 11.27-6.47 15.59c-4.29 4.29-9.47 6.43-15.54 6.43c-6.05 0-11.23-2.14-15.55-6.43c-4.32-4.32-6.47-9.51-6.47-15.59v-2.21c0-6.05 2.16-11.23 6.47-15.54c4.32-4.32 9.49-6.47 15.55-6.47c6.07 0 11.25 2.16 15.54 6.47z" />
				<path id="&lt;Path&gt;" class="s0" d="m1126.59 278.5l-16.52 63.88h-9.11l-6.81-26.45l-6.9 26.45h-9.11l-16.52-63.88h12.73l8.35 32.19l8.39-32.19h6.05l8.39 32.19l8.35-32.19h12.74z" />
			</g>
		</g>
		<text id="CMYK
" style="transform: matrix(2,0,0,2,-93.164,-315.906)" >
			<tspan x="0" y="0" class="t2">CMYK
</tspan>
		</text>
		<path id="&lt;Path&gt;" class="s0" d="m188.26-313.87h-51.66v-51.66h51.66v51.66z" />
		<text id="C0 M0 Y0 K100
" style="transform: matrix(2,0,0,2,198.474,-313.668)" >
			<tspan x="0" y="0" class="t3">C0 M0 Y0 K100
</tspan>
		</text>
		<path id="&lt;Path&gt;" class="s1" d="m438.53-313.87h-51.66v-51.66h51.66v51.66z" />
		<text id="C10 M80 Y80 K20
" style="transform: matrix(2,0,0,2,447.744,-314.669)" >
			<tspan x="0" y="0" class="t3">C10 M80 Y80 K20
</tspan>
		</text>
	</g>
</svg>